<svg xmlns="http://www.w3.org/2000/svg" viewBox="0 0 512 512" role="img" aria-label="Sandbox Music">
  <defs>
    <linearGradient id="sandbox-bg" x1="0" y1="0" x2="0" y2="1">
      <stop offset="0%" stop-color="#050505"/>
      <stop offset="50%" stop-color="#1A0B16"/>
      <stop offset="100%" stop-color="#050505"/>
    </linearGradient>
  </defs>
  <rect width="512" height="512" fill="url(#sandbox-bg)"/>
  <path fill="#D8590A" d="M318.921142578125 294.57177734375Q318.921142578125 309.76220703125 313.261962890625 321.2294921875Q307.602783203125 332.69677734375 297.922607421875 340.366455078125Q288.242431640625 348.0361328125 275.285888671875 351.908203125Q262.329345703125 355.7802734375 247.585693359375 355.7802734375Q237.607666015625 355.7802734375 229.04443359375 354.14208984375Q220.481201171875 352.50390625 213.928466796875 350.195556640625Q207.375732421875 347.88720703125 202.982421875 345.35546875Q198.589111328125 342.82373046875 196.653076171875 340.8876953125Q194.717041015625 338.95166015625 193.89794921875 335.302978515625Q193.078857421875 331.654296875 193.078857421875 324.8037109375Q193.078857421875 320.18701171875 193.376708984375 317.0595703125Q193.674560546875 313.93212890625 194.3447265625 311.99609375Q195.014892578125 310.06005859375 196.1318359375 309.240966796875Q197.248779296875 308.421875 198.738037109375 308.421875Q200.822998046875 308.421875 204.62060546875 310.879150390625Q208.418212890625 313.33642578125 214.375244140625 316.31494140625Q220.332275390625 319.29345703125 228.59765625 321.750732421875Q236.863037109375 324.2080078125 247.734619140625 324.2080078125Q254.883056640625 324.2080078125 260.542236328125 322.495361328125Q266.201416015625 320.78271484375 270.14794921875 317.6552734375Q274.094482421875 314.52783203125 276.179443359375 309.9111328125Q278.264404296875 305.29443359375 278.264404296875 299.63525390625Q278.264404296875 293.08251953125 274.690185546875 288.391357421875Q271.115966796875 283.7001953125 265.38232421875 280.051513671875Q259.648681640625 276.40283203125 252.351318359375 273.200927734375Q245.053955078125 269.9990234375 237.309814453125 266.4248046875Q229.565673828125 262.8505859375 222.268310546875 258.308349609375Q214.970947265625 253.76611328125 209.2373046875 247.436767578125Q203.503662109375 241.107421875 199.929443359375 232.4697265625Q196.355224609375 223.83203125 196.355224609375 211.76904296875Q196.355224609375 197.9189453125 201.4931640625 187.419677734375Q206.631103515625 176.92041015625 215.34326171875 169.995361328125Q224.055419921875 163.0703125 235.89501953125 159.64501953125Q247.734619140625 156.2197265625 260.989013671875 156.2197265625Q267.839599609375 156.2197265625 274.690185546875 157.26220703125Q281.540771484375 158.3046875 287.497802734375 160.091796875Q293.454833984375 161.87890625 298.071533203125 164.11279296875Q302.688232421875 166.3466796875 304.177490234375 167.8359375Q305.666748046875 169.3251953125 306.18798828125 170.36767578125Q306.709228515625 171.41015625 307.08154296875 173.122802734375Q307.453857421875 174.83544921875 307.602783203125 177.441650390625Q307.751708984375 180.0478515625 307.751708984375 183.919921875Q307.751708984375 188.23876953125 307.5283203125 191.21728515625Q307.304931640625 194.19580078125 306.78369140625 196.1318359375Q306.262451171875 198.06787109375 305.29443359375 198.96142578125Q304.326416015625 199.85498046875 302.688232421875 199.85498046875Q301.050048828125 199.85498046875 297.475830078125 197.77001953125Q293.901611328125 195.68505859375 288.689208984375 193.227783203125Q283.476806640625 190.7705078125 276.626220703125 188.760009765625Q269.775634765625 186.74951171875 261.584716796875 186.74951171875Q255.180908203125 186.74951171875 250.415283203125 188.313232421875Q245.649658203125 189.876953125 242.44775390625 192.632080078125Q239.245849609375 195.38720703125 237.68212890625 199.25927734375Q236.118408203125 203.13134765625 236.118408203125 207.4501953125Q236.118408203125 213.85400390625 239.6181640625 218.545166015625Q243.117919921875 223.236328125 249.00048828125 226.885009765625Q254.883056640625 230.53369140625 262.329345703125 233.735595703125Q269.775634765625 236.9375 277.519775390625 240.51171875Q285.263916015625 244.0859375 292.710205078125 248.628173828125Q300.156494140625 253.17041015625 305.964599609375 259.499755859375Q311.772705078125 265.8291015625 315.346923828125 274.392333984375Q318.921142578125 282.95556640625 318.921142578125 294.57177734375Z"/>
</svg>
