<svg xmlns="http://www.w3.org/2000/svg" viewBox="0 0 512 512" role="img" aria-label="Sandbox Music">
  <rect width="512" height="512" rx="96" fill="#07080c"/>
  <rect x="88" y="88" width="336" height="336" rx="48" fill="#1C1C1E"/>
  <circle cx="256" cy="256" r="120" fill="none" stroke="#C2410C" stroke-width="14"/>
  <circle cx="256" cy="256" r="84" fill="none" stroke="#6E758C" stroke-width="6" opacity="0.45"/>
  <path fill="#C2410C" d="M300 176c0-28-24-48-58-48-32 0-56 16-56 40 0 18 12 30 40 38l26 8c44 14 66 34 66 70 0 40-36 68-86 68-50 0-88-26-92-62h42c4 20 24 32 50 32 32 0 52-16 52-38 0-20-14-32-46-40l-28-8c-44-12-64-34-64-66 0-38 36-66 88-66 48 0 84 24 88 60h-58z"/>
</svg>
